<mxfile host="app.diagrams.net" agent="Mozilla/5.0 (Windows NT 10.0; Win64; x64) AppleWebKit/537.36 (KHTML, like Gecko) Chrome/126.0.0.0 Safari/537.36 OPR/112.0.0.0" version="24.7.14">
  <diagram name="PÃ¡gina-1" id="ay0VAJm1djosBD3MG4BH">
    <mxGraphModel dx="1393" dy="755" grid="1" gridSize="10" guides="1" tooltips="1" connect="1" arrows="1" fold="1" page="1" pageScale="1" pageWidth="1920" pageHeight="1200" math="0" shadow="0">
      <root>
        <mxCell id="0" />
        <mxCell id="1" parent="0" />
        <mxCell id="SDecnhV5SKz6DMY33ON5-1" value="Empleado (regular)" style="shape=umlActor;verticalLabelPosition=bottom;verticalAlign=top;html=1;fillColor=#dae8fc;strokeColor=#6c8ebf;" vertex="1" parent="1">
          <mxGeometry x="390" y="170" width="30" height="60" as="geometry" />
        </mxCell>
        <mxCell id="SDecnhV5SKz6DMY33ON5-5" value="Cliente" style="shape=umlActor;verticalLabelPosition=bottom;verticalAlign=top;html=1;fillColor=#e1d5e7;strokeColor=#9673a6;" vertex="1" parent="1">
          <mxGeometry x="170" y="170" width="30" height="60" as="geometry" />
        </mxCell>
        <mxCell id="SDecnhV5SKz6DMY33ON5-9" value="Sistema Punto de Venta" style="shape=umlLifeline;perimeter=lifelinePerimeter;whiteSpace=wrap;html=1;container=1;dropTarget=0;collapsible=0;recursiveResize=0;outlineConnect=0;portConstraint=eastwest;newEdgeStyle={&quot;curved&quot;:0,&quot;rounded&quot;:0};" vertex="1" parent="1">
          <mxGeometry x="600" y="200" width="100" height="410" as="geometry" />
        </mxCell>
        <mxCell id="SDecnhV5SKz6DMY33ON5-18" value="" style="html=1;points=[[0,0,0,0,5],[0,1,0,0,-5],[1,0,0,0,5],[1,1,0,0,-5]];perimeter=orthogonalPerimeter;outlineConnect=0;targetShapes=umlLifeline;portConstraint=eastwest;newEdgeStyle={&quot;curved&quot;:0,&quot;rounded&quot;:0};" vertex="1" parent="SDecnhV5SKz6DMY33ON5-9">
          <mxGeometry x="45" y="100" width="10" height="280" as="geometry" />
        </mxCell>
        <mxCell id="SDecnhV5SKz6DMY33ON5-24" value="&lt;font style=&quot;font-size: 9px;&quot;&gt;Confirmar disponibilidad en inventario&lt;/font&gt;" style="html=1;align=left;spacingLeft=2;endArrow=block;rounded=0;edgeStyle=orthogonalEdgeStyle;curved=0;rounded=0;" edge="1" parent="SDecnhV5SKz6DMY33ON5-9">
          <mxGeometry relative="1" as="geometry">
            <mxPoint x="55" y="119.99800000000003" as="sourcePoint" />
            <Array as="points">
              <mxPoint x="90" y="119.99" />
              <mxPoint x="90" y="149.99" />
            </Array>
            <mxPoint x="55" y="149.99" as="targetPoint" />
          </mxGeometry>
        </mxCell>
        <mxCell id="SDecnhV5SKz6DMY33ON5-26" value="&lt;font style=&quot;font-size: 9px;&quot;&gt;Actualizar dinero en caja&lt;/font&gt;" style="html=1;align=left;spacingLeft=2;endArrow=block;rounded=0;edgeStyle=orthogonalEdgeStyle;curved=0;rounded=0;" edge="1" parent="SDecnhV5SKz6DMY33ON5-9" source="SDecnhV5SKz6DMY33ON5-18" target="SDecnhV5SKz6DMY33ON5-18">
          <mxGeometry relative="1" as="geometry">
            <mxPoint x="60" y="310" as="sourcePoint" />
            <Array as="points">
              <mxPoint x="85" y="310" />
              <mxPoint x="85" y="340" />
            </Array>
            <mxPoint x="60" y="340" as="targetPoint" />
          </mxGeometry>
        </mxCell>
        <mxCell id="SDecnhV5SKz6DMY33ON5-10" value="" style="endArrow=none;dashed=1;html=1;rounded=0;" edge="1" parent="1">
          <mxGeometry width="50" height="50" relative="1" as="geometry">
            <mxPoint x="184.9" y="250" as="sourcePoint" />
            <mxPoint x="185" y="610" as="targetPoint" />
          </mxGeometry>
        </mxCell>
        <mxCell id="SDecnhV5SKz6DMY33ON5-11" value="" style="endArrow=none;dashed=1;html=1;rounded=0;" edge="1" parent="1" source="SDecnhV5SKz6DMY33ON5-14">
          <mxGeometry width="50" height="50" relative="1" as="geometry">
            <mxPoint x="404.58000000000004" y="250" as="sourcePoint" />
            <mxPoint x="405" y="610" as="targetPoint" />
          </mxGeometry>
        </mxCell>
        <mxCell id="SDecnhV5SKz6DMY33ON5-12" value="" style="endArrow=classic;html=1;rounded=0;" edge="1" parent="1" target="SDecnhV5SKz6DMY33ON5-14">
          <mxGeometry relative="1" as="geometry">
            <mxPoint x="185" y="280" as="sourcePoint" />
            <mxPoint x="400" y="280" as="targetPoint" />
          </mxGeometry>
        </mxCell>
        <mxCell id="SDecnhV5SKz6DMY33ON5-13" value="Solicitar compra de productos" style="edgeLabel;resizable=0;html=1;;align=center;verticalAlign=middle;fontSize=9;" connectable="0" vertex="1" parent="SDecnhV5SKz6DMY33ON5-12">
          <mxGeometry relative="1" as="geometry" />
        </mxCell>
        <mxCell id="SDecnhV5SKz6DMY33ON5-15" value="" style="endArrow=none;dashed=1;html=1;rounded=0;" edge="1" parent="1" target="SDecnhV5SKz6DMY33ON5-14">
          <mxGeometry width="50" height="50" relative="1" as="geometry">
            <mxPoint x="404.58000000000004" y="250" as="sourcePoint" />
            <mxPoint x="404.68" y="680" as="targetPoint" />
          </mxGeometry>
        </mxCell>
        <mxCell id="SDecnhV5SKz6DMY33ON5-14" value="" style="html=1;points=[[0,0,0,0,5],[0,1,0,0,-5],[1,0,0,0,5],[1,1,0,0,-5]];perimeter=orthogonalPerimeter;outlineConnect=0;targetShapes=umlLifeline;portConstraint=eastwest;newEdgeStyle={&quot;curved&quot;:0,&quot;rounded&quot;:0};" vertex="1" parent="1">
          <mxGeometry x="400" y="280" width="10" height="310" as="geometry" />
        </mxCell>
        <mxCell id="SDecnhV5SKz6DMY33ON5-16" value="" style="endArrow=classic;html=1;rounded=0;" edge="1" parent="1" target="SDecnhV5SKz6DMY33ON5-9">
          <mxGeometry relative="1" as="geometry">
            <mxPoint x="410" y="300" as="sourcePoint" />
            <mxPoint x="630" y="300" as="targetPoint" />
          </mxGeometry>
        </mxCell>
        <mxCell id="SDecnhV5SKz6DMY33ON5-17" value="Registrar compra" style="edgeLabel;resizable=0;html=1;;align=center;verticalAlign=middle;fontSize=9;" connectable="0" vertex="1" parent="SDecnhV5SKz6DMY33ON5-16">
          <mxGeometry relative="1" as="geometry" />
        </mxCell>
        <mxCell id="SDecnhV5SKz6DMY33ON5-25" value="&lt;font style=&quot;font-size: 9px;&quot;&gt;Confirmar productos seleccionados&lt;/font&gt;" style="html=1;verticalAlign=bottom;endArrow=open;dashed=1;endSize=8;curved=0;rounded=0;" edge="1" parent="1">
          <mxGeometry relative="1" as="geometry">
            <mxPoint x="400" y="390" as="sourcePoint" />
            <mxPoint x="185" y="390" as="targetPoint" />
          </mxGeometry>
        </mxCell>
        <mxCell id="SDecnhV5SKz6DMY33ON5-27" value="&lt;font style=&quot;font-size: 9px;&quot;&gt;Disponibilidad confirmada&lt;/font&gt;" style="html=1;verticalAlign=bottom;endArrow=open;dashed=1;endSize=8;curved=0;rounded=0;entryX=0.994;entryY=0.604;entryDx=0;entryDy=0;entryPerimeter=0;" edge="1" parent="1">
          <mxGeometry x="-0.0003" relative="1" as="geometry">
            <mxPoint x="645.06" y="370" as="sourcePoint" />
            <mxPoint x="410.00000000000006" y="370" as="targetPoint" />
            <mxPoint as="offset" />
          </mxGeometry>
        </mxCell>
        <mxCell id="SDecnhV5SKz6DMY33ON5-28" value="" style="endArrow=classic;html=1;rounded=0;" edge="1" parent="1">
          <mxGeometry relative="1" as="geometry">
            <mxPoint x="185" y="410" as="sourcePoint" />
            <mxPoint x="400" y="410" as="targetPoint" />
          </mxGeometry>
        </mxCell>
        <mxCell id="SDecnhV5SKz6DMY33ON5-29" value="Productos confirmados" style="edgeLabel;resizable=0;html=1;;align=center;verticalAlign=middle;fontSize=9;" connectable="0" vertex="1" parent="SDecnhV5SKz6DMY33ON5-28">
          <mxGeometry relative="1" as="geometry" />
        </mxCell>
        <mxCell id="SDecnhV5SKz6DMY33ON5-30" value="&lt;font style=&quot;font-size: 9px;&quot;&gt;Solicitar pago&lt;/font&gt;" style="html=1;verticalAlign=bottom;endArrow=open;dashed=1;endSize=8;curved=0;rounded=0;" edge="1" parent="1">
          <mxGeometry relative="1" as="geometry">
            <mxPoint x="400" y="444.76" as="sourcePoint" />
            <mxPoint x="185" y="444.76" as="targetPoint" />
          </mxGeometry>
        </mxCell>
        <mxCell id="SDecnhV5SKz6DMY33ON5-31" value="" style="endArrow=classic;html=1;rounded=0;" edge="1" parent="1">
          <mxGeometry relative="1" as="geometry">
            <mxPoint x="185" y="470" as="sourcePoint" />
            <mxPoint x="400" y="470" as="targetPoint" />
          </mxGeometry>
        </mxCell>
        <mxCell id="SDecnhV5SKz6DMY33ON5-32" value="Proveer pago" style="edgeLabel;resizable=0;html=1;;align=center;verticalAlign=middle;fontSize=9;" connectable="0" vertex="1" parent="SDecnhV5SKz6DMY33ON5-31">
          <mxGeometry relative="1" as="geometry" />
        </mxCell>
        <mxCell id="SDecnhV5SKz6DMY33ON5-33" value="" style="endArrow=classic;html=1;rounded=0;" edge="1" parent="1" target="SDecnhV5SKz6DMY33ON5-18">
          <mxGeometry relative="1" as="geometry">
            <mxPoint x="410" y="490" as="sourcePoint" />
            <mxPoint x="640" y="490" as="targetPoint" />
          </mxGeometry>
        </mxCell>
        <mxCell id="SDecnhV5SKz6DMY33ON5-34" value="Registrar pago" style="edgeLabel;resizable=0;html=1;;align=center;verticalAlign=middle;fontSize=9;" connectable="0" vertex="1" parent="SDecnhV5SKz6DMY33ON5-33">
          <mxGeometry relative="1" as="geometry" />
        </mxCell>
        <mxCell id="SDecnhV5SKz6DMY33ON5-36" value="&lt;font style=&quot;font-size: 9px;&quot;&gt;Emitir recibo&lt;/font&gt;" style="html=1;verticalAlign=bottom;endArrow=open;dashed=1;endSize=8;curved=0;rounded=0;" edge="1" parent="1" target="SDecnhV5SKz6DMY33ON5-14">
          <mxGeometry relative="1" as="geometry">
            <mxPoint x="645" y="560" as="sourcePoint" />
            <mxPoint x="430" y="560" as="targetPoint" />
          </mxGeometry>
        </mxCell>
        <mxCell id="SDecnhV5SKz6DMY33ON5-37" value="&lt;font style=&quot;font-size: 9px;&quot;&gt;Entregar recibo y productos&lt;/font&gt;" style="html=1;verticalAlign=bottom;endArrow=open;dashed=1;endSize=8;curved=0;rounded=0;exitX=-0.015;exitY=1;exitDx=0;exitDy=0;exitPerimeter=0;" edge="1" parent="1" source="SDecnhV5SKz6DMY33ON5-14">
          <mxGeometry relative="1" as="geometry">
            <mxPoint x="400" y="580" as="sourcePoint" />
            <mxPoint x="185" y="590" as="targetPoint" />
          </mxGeometry>
        </mxCell>
        <mxCell id="SDecnhV5SKz6DMY33ON5-38" value="Diagrama de secuencia Registro Venta&amp;nbsp;&lt;div&gt;Punto de Venta LiebreShop&lt;/div&gt;" style="text;html=1;align=center;verticalAlign=middle;whiteSpace=wrap;rounded=0;fontStyle=1" vertex="1" parent="1">
          <mxGeometry x="320" y="110" width="170" height="30" as="geometry" />
        </mxCell>
      </root>
    </mxGraphModel>
  </diagram>
</mxfile>
